# xmcd
#
# Track frame offsets:
#	150
#	13100
#	25550
#	41750
#	60200
#
# Disc length: 982 seconds
#
# Revision: 1
# Processed by: cddbd v1.5.2PL0 Copyright (c) Steve Scherf et al.
# Submitted via: audiograbber 1.83.01
#
DISCID=2f03d405
DTITLE=Hold Your Horses - Sometimes Hard Times
DYEAR=2013
DGENRE=
TTITLE0=Bradly and Cruel
TTITLE1=True Love
TTITLE2=Sometimes
TTITLE3=Risen
TTITLE4=Hardtimes
EXTD=
EXTT0=
EXTT1=
EXTT2=
EXTT3=
EXTT4=
PLAYORDER=
